<?xml version="1.0" standalone="no"?><!DOCTYPE svg PUBLIC "-//W3C//DTD SVG 1.1//EN" "http://www.w3.org/Graphics/SVG/1.1/DTD/svg11.dtd"><svg t="1608084768020" class="icon" viewBox="0 0 1024 1024" version="1.1" xmlns="http://www.w3.org/2000/svg" p-id="9785" xmlns:xlink="http://www.w3.org/1999/xlink" width="200" height="200"><defs><style type="text/css"></style></defs><path d="M700.8 349.6c-12.9-4.25-29.3 10.4-36.65 32.7-7.35 22.3-2.85 43.8 10.05 48.05s29.3-10.4 36.65-32.7c7.35-22.25 2.85-43.8-10.05-48.05zM323.85 349.6c12.9-4.25 29.3 10.4 36.65 32.7 7.35 22.3 2.85 43.8-10.05 48.05s-29.3-10.4-36.65-32.7c-7.35-22.25-2.85-43.8 10.05-48.05z" fill="#FFD7A3" p-id="9786"></path><path d="M580.2 586.4c150.75 66.1 196 101.3 213.85 117.15 27.55 24.4 42.8 115.25 59.05 192.4H170.95c16.25-77.15 31.5-168 59.05-192.4 17.85-15.8 61.45-50.15 212.2-116.25l138-0.9z" fill="#FFDDCC" p-id="9787"></path><path d="M580.2 586.4c150.75 66.1 195.95 101.3 213.85 117.15 27.55 24.4 42.8 115.25 59.05 192.4H170.95c16.25-77.15 31.5-168 59.05-192.4 17.85-15.8 61.45-50.15 212.2-116.25l138-0.9z" fill="#B0BEC5" p-id="9788"></path><path d="M438.8 454.65v167.1c40.25 49.3 106.15 47.6 146.4 0V454.65c0-90.2-146.4-90.2-146.4 0z" fill="#FFD7A3" p-id="9789"></path><path d="M438.8 454.65v111.9c27.7 20.2 54.4 31.5 73.2 31.5 18.8 0 45.5-11.3 73.2-31.5V454.65c0-90.2-146.4-90.2-146.4 0z" fill="#E9C596" p-id="9790"></path><path d="M512 154.65c245.65 0 157.3 296.85 141.25 320.45-17.7 26.05-101.6 95.15-141.25 95.15-39.7 0-123.55-69.05-141.25-95.15C354.7 451.5 266.35 154.65 512 154.65z" fill="#FFD7A3" p-id="9791"></path><path d="M624.3 254c14.25 77.85 49.95 70.6 47.1 161.95 19.7-144 37.15-281.05-169.75-287.9-31.1 1.2-64.95 10.05-101.25 33.1-60.25 38.25-92.35 118.6-49.35 242.1 6.55-43.55 5.7-76.9 35.65-106.5 31.35-30.85 101.85 53.05 237.6-42.75z" fill="#6D4C41" p-id="9792"></path><path d="M511.6 658.1s102.15 24.4 102.15 30.55c0 6.2-38.85 207.25-38.85 207.25H436.2l-15.9-206.35 91.3-31.45z" fill="#B0BEC5" p-id="9793"></path><path d="M585.2 588.6v33.2l-31.8 274.15h54.65l60.15-122.1-57.4-38.3 70.15-32.8-64.5-100.1zM438.8 588.8v33l32.1 274.15H416.25l-60.15-122.1 57.4-38.3-70.15-32.8 57.35-97.05z" fill="#ECEFF1" p-id="9794"></path><path d="M585.2 566.55l6.4 24.9-17.9 129.6-62.1-62.95z" fill="#FFFFFF" p-id="9795"></path><path d="M543.45 692l-17.75 27.45h-27.5L480.5 692l31.1-33.9 31.85 33.9z" fill="#0D47A1" p-id="9796"></path><path d="M525.75 719.5l25.25 176.45H473l25.25-176.45z" fill="#1976D2" p-id="9797"></path><path d="M438.8 566.55l-5.05 24.5 16.85 131.3 61-64.25z" fill="#FFFFFF" p-id="9798"></path><path d="M714.05 895.95h-11.7c0.5-51.95 0.5-89.35 0.5-89.35s5.25 38.85 11.2 89.35zM309.95 895.95h11.7c-0.5-51.95-0.5-89.35-0.5-89.35s-5.25 38.85-11.2 89.35z" fill="#546E7A" p-id="9799"></path><path d="M586.4 465.4c-49.4 17.7-106.75 14.8-148.8 0 13.7 63.2 122.55 64.75 148.8 0z" fill="#E9C596" p-id="9800"></path></svg>